<svg width="223" height="219" viewBox="0 0 223 219" fill="none" xmlns="http://www.w3.org/2000/svg">
<g id="Group">
<g id="Group_2">
<g id="Group_3">
<g id="Group_4">
<g id="Group_5">
<g id="Group_6">
<path id="Vector" d="M132.581 189.188H74.1569C64.1365 189.188 55.9385 181.022 55.9385 171.042V119.628C55.9385 109.648 64.1365 101.482 74.1569 101.482H132.582C142.602 101.482 150.8 109.648 150.8 119.628V171.042C150.8 181.022 142.602 189.188 132.581 189.188Z" fill="white"/>
</g>
</g>
</g>
</g>
<g id="Group_7">
<g id="Group_8">
<g id="Group_9">
<g id="Group_10">
<path id="Vector_2" d="M132.581 101.482C142.602 101.482 150.8 109.647 150.8 119.627V171.041C150.8 181.022 142.602 189.187 132.581 189.187H74.1572C64.1367 189.187 55.9387 181.022 55.9387 171.041V119.627C55.9387 109.647 64.1367 101.482 74.1572 101.482H132.581ZM132.581 98.6135H74.1572C71.3195 98.6135 68.5607 99.1724 65.9575 100.274C63.4481 101.336 61.1929 102.853 59.2545 104.784C57.316 106.715 55.7923 108.962 54.726 111.46C53.6202 114.053 53.0591 116.801 53.0591 119.627V171.041C53.0591 173.868 53.6202 176.615 54.726 179.208C55.7923 181.708 57.3152 183.954 59.2545 185.885C61.1929 187.815 63.4489 189.333 65.9575 190.395C68.5607 191.496 71.3195 192.055 74.1572 192.055H132.582C135.42 192.055 138.179 191.496 140.782 190.395C143.291 189.333 145.547 187.816 147.485 185.885C149.423 183.954 150.947 181.707 152.013 179.208C153.119 176.615 153.68 173.868 153.68 171.041V119.627C153.68 116.801 153.119 114.053 152.013 111.46C150.947 108.961 149.424 106.715 147.485 104.784C145.547 102.854 143.291 101.336 140.782 100.274C138.179 99.1724 135.419 98.6135 132.581 98.6135Z" fill="#00227B"/>
</g>
</g>
</g>
</g>
<g id="Group_11">
<g id="Group_12">
<g id="Group_13">
<g id="Group_14">
<path id="Vector_3" d="M149.494 157.396C140.397 158.458 131.33 158.72 131.33 158.72C131.33 158.72 126.713 135.787 125.433 117.805C124.49 104.481 125.377 93.8777 131.33 97.3359C134.069 98.9273 137.224 101.924 140.513 105.726C152.85 119.989 167.025 145.601 167.802 150.915C168.304 154.333 158.886 156.293 149.494 157.396Z" fill="white"/>
</g>
</g>
</g>
</g>
<g id="Group_15">
<g id="Group_16">
<g id="Group_17">
<g id="Group_18">
<path id="Vector_4" d="M130.112 160.247L129.864 159.014C129.836 158.873 127.012 144.782 125.185 130.192C124.107 121.59 123.58 114.488 123.618 109.083C123.67 101.701 124.746 97.5146 127.005 95.9076C127.996 95.202 129.683 94.6546 132.085 96.0502C140.005 100.652 150.057 115.313 155.344 123.642C158.87 129.198 162.246 135.038 164.85 140.086C166.685 143.643 168.943 148.371 169.285 150.699C169.384 151.375 169.318 152.401 168.437 153.445C167.165 154.954 164.521 156.136 160.117 157.162C156.888 157.914 152.738 158.561 147.784 159.086C139.396 159.973 131.453 160.209 131.374 160.211L130.112 160.247ZM129.268 98.1669C128.979 98.1669 128.828 98.2751 128.745 98.3332C127.768 99.0282 124.841 103.35 128.153 129.808C129.654 141.79 131.832 153.439 132.556 157.184C135.11 157.081 141.17 156.787 147.484 156.119C162.143 154.566 165.417 152.39 166.145 151.527C166.347 151.289 166.33 151.178 166.323 151.13C165.898 148.234 160.368 137.136 152.814 125.235C144.066 111.452 135.961 101.753 130.577 98.625C129.967 98.2701 129.551 98.1669 129.268 98.1669Z" fill="#00227B"/>
</g>
</g>
</g>
</g>
<g id="Group_19">
<g id="Group_20">
<g id="Group_21">
<g id="Group_22">
<path id="Vector_5" d="M85.0435 96.4903L83.2022 110.362L82.1548 118.249L79.921 135.088C79.921 135.088 75.8385 137.853 69.0474 140.045C66.51 140.865 63.5876 141.598 60.3623 142.079C55.0901 142.869 48.9942 142.97 42.3899 141.625C25.3982 138.158 15.2009 125.587 10.786 119.267C2.25312 107.067 0.939996 103.769 3.31202 98.6332C5.12292 94.6973 8.22555 93.9786 8.22555 93.9786C8.22555 93.9786 8.07252 90.8334 10.5721 89.7149C18.0633 86.364 27.7135 95.3127 27.7135 95.3127C27.7135 95.3127 28.073 85.6896 33.2441 87.9112C36.8067 89.4428 37.6146 99.9198 37.6146 99.9198C37.6146 99.9198 42.3965 106.04 49.9931 106.852C53.9629 107.276 59.4565 106.129 64.9122 104.463C64.9756 104.444 65.0397 104.426 65.1031 104.403C68.0107 103.509 70.8994 102.472 73.5446 101.447C74.731 100.989 75.8681 100.53 76.9344 100.091C81.7015 98.1227 85.0435 96.4903 85.0435 96.4903Z" fill="white"/>
</g>
</g>
</g>
</g>
<g id="Group_23">
<path id="Vector_6" opacity="0.35" d="M10.7835 119.267C15.2026 125.586 25.3982 138.159 42.3882 141.625C53.0307 143.793 62.3567 142.2 69.0482 140.042C75.8392 137.853 79.921 135.086 79.921 135.086L80.2204 121.798C80.2204 121.798 75.5932 117.357 71.2836 119.168C66.1052 121.343 67.7647 128.739 60.3689 130.796C39.8089 136.514 23.1068 126.067 17.7326 121.48C10.2767 115.118 8.33168 111.11 7.28266 109.457C5.1114 106.035 3.43461 103.347 2.48926 100.939C1.5258 105.012 3.58271 108.968 10.7835 119.267Z" fill="#00227B"/>
</g>
<g id="Group_24">
<g id="Group_25">
<g id="Group_26">
<g id="Group_27">
<path id="Vector_7" d="M52.6413 144.148C49.0936 144.148 45.5606 143.793 42.0886 143.084C34.4509 141.526 27.325 138.019 20.9099 132.658C16.7813 129.208 12.9612 124.988 9.55659 120.119C5.40165 114.175 2.76058 110.093 1.55606 106.813C0.401723 103.67 0.516087 101.12 1.94934 98.0095C3.36037 94.9463 5.49379 93.5376 6.78306 92.9337C6.99369 91.3586 7.81398 89.3157 9.9581 88.3569C16.0498 85.6313 23.0795 89.8492 26.559 92.4453C26.5927 92.2691 26.6305 92.0888 26.6709 91.9061C27.2476 89.3296 28.2432 87.5809 29.6295 86.7098C30.4811 86.1746 31.902 85.7116 33.8396 86.5451C35.8052 87.3908 37.2392 89.8811 38.2249 94.158C38.7293 96.3493 38.972 98.4061 39.0633 99.3174C40.1214 100.511 44.2566 104.739 50.1541 105.369C60.92 106.518 84.1498 95.2651 84.3835 95.1512C84.8788 94.9094 85.4679 94.9586 85.9155 95.2798C86.363 95.6003 86.5975 96.1411 86.5259 96.6852L81.4067 135.281C81.3508 135.702 81.1179 136.079 80.765 136.318C80.5938 136.434 76.4883 139.19 69.6618 141.411C65.6632 142.713 61.5494 143.56 57.4356 143.931C55.8369 144.076 54.2375 144.148 52.6413 144.148ZM8.57175 95.4265C8.3784 95.479 6.09359 96.1608 4.66939 99.2518C2.75153 103.415 3.22297 105.841 12.0125 118.414C20.2764 130.235 30.8834 137.755 42.6884 140.163C53.4443 142.356 62.7868 140.511 68.7304 138.577C73.769 136.937 77.2435 134.981 78.5287 134.2L83.1987 98.9953C80.7592 100.105 76.7688 101.848 72.2905 103.52C62.3219 107.24 54.7657 108.859 49.8349 108.333C41.7002 107.465 36.6452 101.106 36.4337 100.836C36.2536 100.605 36.145 100.326 36.1227 100.034C36.1211 100.01 35.9179 97.4654 35.2992 94.7923C34.2567 90.286 33.0094 89.4345 32.6523 89.2813C31.7588 88.8969 31.3729 89.1387 31.2273 89.2297C29.9693 90.018 29.2881 93.2943 29.2058 95.3683C29.1827 95.9502 28.8207 96.4664 28.2802 96.6885C27.7388 96.9106 27.1184 96.7992 26.6898 96.4017C26.6009 96.3198 17.6764 88.1709 11.184 91.0759C9.68823 91.7454 9.71538 93.7646 9.7195 93.9097C9.76393 94.6456 9.29495 95.2741 8.57175 95.4265Z" fill="#00227B"/>
</g>
</g>
</g>
</g>
<g id="Group_28">
<g id="Group_29">
<g id="Group_30">
<g id="Group_31">
<path id="Vector_8" d="M28.9446 95.311C28.9792 95.7298 28.9167 96.1108 28.8327 96.4411C28.7908 96.6115 28.7389 96.759 28.6863 96.9106C28.6328 97.0524 28.5744 97.1966 28.5168 97.3253C28.2807 97.8547 28.0256 98.2931 27.7829 98.7184C27.5394 99.1412 27.3049 99.5436 27.0868 99.9468L26.9272 100.25C26.877 100.352 26.8236 100.452 26.775 100.555L26.6335 100.863L26.4986 101.174L26.376 101.491L26.2624 101.812C26.2238 101.919 26.195 102.029 26.1604 102.138C26.1242 102.247 26.0971 102.358 26.0674 102.469C25.9539 102.915 25.856 103.374 25.7992 103.847C25.7375 104.319 25.698 104.803 25.6865 105.295C25.6742 105.543 25.6791 105.79 25.6766 106.043C25.6725 106.169 25.6832 106.294 25.684 106.421C25.6865 106.548 25.6906 106.675 25.6898 106.803V106.812C25.6898 106.911 25.6092 106.992 25.5088 106.992C25.4388 106.992 25.3788 106.952 25.3492 106.894C25.1089 106.43 24.8917 105.949 24.7239 105.445C24.547 104.944 24.4203 104.421 24.3273 103.886C24.1446 102.816 24.1488 101.683 24.3495 100.577L24.4326 100.164C24.4647 100.028 24.5001 99.8927 24.5338 99.7558C24.57 99.6206 24.6103 99.4879 24.6482 99.3527C24.6877 99.2191 24.7346 99.0888 24.7782 98.9568C24.9584 98.4324 25.1813 97.9341 25.4109 97.467C25.6396 97.0008 25.8831 96.5607 26.0806 96.1788C26.2888 95.792 26.4064 95.4782 26.4755 95.3085L26.6203 94.9537C26.8721 94.3383 27.5772 94.0425 28.1951 94.2932C28.632 94.4719 28.9076 94.8742 28.9446 95.311Z" fill="#00227B"/>
</g>
</g>
</g>
</g>
<g id="Group_32">
<g id="Group_33">
<g id="Group_34">
<g id="Group_35">
<path id="Vector_9" d="M40.7445 142.648C40.3669 142.648 40.0024 142.44 39.823 142.08C39.5696 141.574 39.777 140.959 40.2854 140.707C44.4346 138.651 47.2699 132.234 48.4826 122.15C49.423 114.336 49.0322 107.068 49.0281 106.996C48.9969 106.431 49.4305 105.948 49.9973 105.916C50.5618 105.884 51.0496 106.317 51.0817 106.881C51.0858 106.955 51.4865 114.378 50.528 122.367C49.9611 127.094 49.0355 131.106 47.7767 134.289C46.1476 138.41 43.9352 141.186 41.202 142.541C41.0547 142.614 40.8984 142.648 40.7445 142.648Z" fill="#00227B"/>
</g>
</g>
</g>
</g>
<g id="Group_36" opacity="0.35">
<g id="Group_37" opacity="0.35">
<g id="Group_38" opacity="0.35">
<g id="Group_39" opacity="0.35">
<path id="Vector_10" opacity="0.35" d="M173.479 208.583V208.374C171.834 208.444 173.479 208.583 173.479 208.583Z" fill="#00227B"/>
</g>
</g>
</g>
</g>
<g id="Group_40">
<g id="Group_41">
<g id="Group_42">
<g id="Group_43">
<g id="Group_44">
<path id="Vector_11" d="M152.72 183.418H53.9144C53.9144 183.418 54.5167 166.434 60.3616 142.079C62.704 132.31 65.8922 121.356 70.2216 109.836C71.2615 107.071 72.3698 104.272 73.5447 101.446C76.83 93.5639 80.6616 85.4913 85.13 77.4186H121.505C125.199 84.0932 128.457 90.7646 131.331 97.3351C133.191 101.584 134.89 105.788 136.439 109.917C143.201 127.919 147.171 144.534 149.495 157.395C152.36 173.262 152.72 183.418 152.72 183.418Z" fill="white"/>
</g>
</g>
</g>
</g>
</g>
<g id="Group_45">
<g id="Group_46">
<g id="Group_47">
<g id="Group_48">
<g id="Group_49">
<path id="Vector_12" d="M139.156 122.584C141.065 124.707 141.938 127.179 142.744 129.661C143.149 130.902 143.548 132.146 143.929 133.396C144.12 134.021 144.316 134.644 144.486 135.274C144.661 135.903 144.832 136.534 145.003 137.164L145.503 139.058C145.668 139.69 145.834 140.321 145.989 140.956L146.898 144.766C147.046 145.402 147.208 146.034 147.353 146.671L147.786 148.58L148.231 150.487C148.381 151.122 148.536 151.756 148.676 152.394L149.533 156.215C149.68 156.851 149.807 157.492 149.943 158.13L150.344 160.047L150.545 161.005L150.645 161.484L150.739 161.965L151.115 163.886C151.24 164.527 151.369 165.167 151.505 165.806C151.635 166.446 151.766 167.086 151.903 167.725C152.475 170.276 152.893 172.86 153.067 175.477C153.089 175.804 153.114 176.13 153.13 176.459L153.172 177.443C153.193 178.1 153.212 178.756 153.202 179.418C153.198 180.077 153.183 180.738 153.14 181.401C153.101 182.064 153.046 182.727 152.946 183.395C152.927 183.523 152.806 183.612 152.677 183.593C152.589 183.58 152.52 183.52 152.49 183.443L152.489 183.44C152.017 182.19 151.631 180.935 151.267 179.679C151.087 179.052 150.914 178.422 150.747 177.794L150.507 176.849C150.431 176.533 150.353 176.219 150.274 175.903C149.968 174.642 149.698 173.377 149.456 172.107C149.339 171.471 149.233 170.834 149.136 170.195C149.031 169.556 148.935 168.917 148.835 168.278C148.738 167.638 148.636 166.999 148.533 166.361C148.422 165.724 148.3 165.088 148.175 164.453L147.803 162.548L147.71 162.072L147.61 161.597L147.411 160.647L147.013 158.747C146.878 158.114 146.752 157.479 146.606 156.848L145.756 153.059C145.619 152.426 145.459 151.798 145.309 151.169L144.844 149.283L144.368 147.401C144.29 147.087 144.202 146.775 144.118 146.463L143.863 145.526L142.835 141.781C142.479 140.536 142.116 139.294 141.769 138.047C141.597 137.423 141.424 136.799 141.256 136.174L141.131 135.705L140.998 135.238L140.738 134.303C140.39 133.057 140.06 131.805 139.735 130.551L139.496 129.608C139.416 129.295 139.328 128.983 139.244 128.67C139.077 128.044 138.937 127.41 138.832 126.765C138.728 126.119 138.654 125.464 138.626 124.793C138.612 124.458 138.61 124.119 138.622 123.775C138.636 123.43 138.658 123.082 138.719 122.722L138.721 122.709C138.744 122.572 138.873 122.481 139.01 122.504C139.068 122.514 139.119 122.544 139.156 122.584Z" fill="#00227B"/>
</g>
</g>
</g>
</g>
<g id="Group_50">
<g id="Group_51">
<g id="Group_52">
<g id="Group_53">
<path id="Vector_13" d="M53.6826 183.41C53.5304 183.073 53.4259 182.738 53.328 182.401C53.2301 182.063 53.1569 181.73 53.0919 181.394C52.9603 180.722 52.8895 180.054 52.85 179.388C52.8319 179.054 52.8196 178.721 52.8204 178.389C52.8212 178.057 52.8344 177.727 52.85 177.397L52.906 176.406C52.9232 176.076 52.9438 175.746 52.9709 175.416C53.0738 174.099 53.1742 172.779 53.3289 171.468C53.3988 170.811 53.4769 170.155 53.5543 169.499C53.5921 169.171 53.6431 168.845 53.6876 168.517L53.8266 167.536L54.1171 165.577C54.2191 164.925 54.3376 164.276 54.4486 163.625C54.6757 162.324 54.8896 161.022 55.1488 159.728C55.4006 158.433 55.6309 157.134 55.8885 155.841C56.1501 154.548 56.4052 153.254 56.6569 151.96C56.7211 151.636 56.7787 151.311 56.8486 150.989L57.056 150.022L57.4698 148.088L57.8837 146.155C57.919 145.993 57.9511 145.832 57.9881 145.671L58.1017 145.19L58.3288 144.227L59.2363 140.376C59.3095 140.055 59.3918 139.736 59.4732 139.416C59.5522 139.096 59.6328 138.776 59.7085 138.456C59.8616 137.814 60.013 137.172 60.1586 136.529C60.3075 135.886 60.4531 135.242 60.607 134.601C60.7551 133.957 60.941 133.325 61.127 132.691C61.317 132.06 61.5186 131.431 61.7301 130.805C61.9423 130.18 62.1678 129.558 62.3957 128.937L62.7478 128.01C62.8071 127.856 62.8729 127.703 62.9371 127.55C63.0021 127.398 63.0646 127.244 63.132 127.092C63.3978 126.483 63.6668 125.877 63.9532 125.276C64.2362 124.674 64.5316 124.076 64.8417 123.485C65.1519 122.893 65.4736 122.305 65.8307 121.73C65.899 121.619 66.0446 121.585 66.1557 121.654C66.2314 121.701 66.2717 121.783 66.2676 121.867V121.87C66.1195 124.574 65.611 127.148 65.1091 129.72C64.98 130.362 64.8483 131.002 64.7035 131.64C64.5579 132.277 64.4016 132.91 64.2354 133.54C63.8882 134.797 63.5393 136.054 63.1757 137.307C62.9938 137.934 62.8169 138.562 62.6417 139.191C62.5528 139.504 62.4697 139.82 62.385 140.135C62.3019 140.45 62.2163 140.765 62.1456 141.084L61.2479 144.893L61.0233 145.846L60.9114 146.322C60.8744 146.481 60.8423 146.64 60.8077 146.799L60.398 148.713L59.9883 150.626L59.7834 151.584C59.7151 151.902 59.6575 152.224 59.5942 152.543C58.5427 157.656 57.8359 162.83 57.1489 167.994L56.8824 169.929C56.7993 170.575 56.7162 171.221 56.6257 171.866L56.0958 175.736C55.9995 176.381 55.9222 177.026 55.835 177.671C55.7897 177.993 55.742 178.316 55.6819 178.637C55.6227 178.958 55.5643 179.279 55.4919 179.6C55.3479 180.241 55.1694 180.88 54.9579 181.517C54.8526 181.836 54.7267 182.156 54.5975 182.474C54.4651 182.792 54.3211 183.111 54.1434 183.428L54.1417 183.432C54.0726 183.555 53.9171 183.599 53.7937 183.53C53.7419 183.5 53.7049 183.458 53.6826 183.41Z" fill="#00227B"/>
</g>
</g>
</g>
</g>
</g>
<g id="Group_54">
<g id="Group_55">
<g id="Group_56">
<g id="Group_57">
<g id="Group_58">
<path id="Vector_14" d="M82.372 161.99C76.7369 164.263 68.0156 163.787 62.0704 163.07C58.5045 162.641 56.0008 159.363 56.5266 155.824C57.0063 152.594 59.8604 150.245 63.1342 150.398C68.6952 150.658 77.0372 150.779 82.3202 149.612" fill="white"/>
</g>
</g>
</g>
</g>
<g id="Group_59" opacity="0.35">
<g id="Group_60" opacity="0.35">
<g id="Group_61" opacity="0.35">
<g id="Group_62" opacity="0.35">
<path id="Vector_15" opacity="0.35" d="M82.3735 161.989C76.7368 164.265 68.0155 163.785 62.0702 163.073C58.5044 162.642 56.0015 159.363 56.5273 155.826C56.6318 155.104 56.8597 154.426 57.183 153.808C58.1218 155.593 59.8998 156.909 62.0702 157.172C68.0048 157.889 76.7113 158.364 82.3488 156.103L82.3735 161.989Z" fill="#00227B"/>
</g>
</g>
</g>
</g>
<g id="Group_63">
<g id="Group_64">
<g id="Group_65">
<g id="Group_66">
<path id="Vector_16" d="M71.1684 165.153C67.9078 165.153 64.6662 164.885 61.8902 164.551C59.7641 164.294 57.8775 163.219 56.5776 161.523C55.2752 159.823 54.7313 157.722 55.0456 155.606C55.3319 153.678 56.3209 151.933 57.8298 150.694C59.3404 149.452 61.2492 148.819 63.2041 148.91C71.3963 149.292 78.0698 149.025 81.9952 148.158C82.7834 147.984 84.7415 147.978 85.8975 151.679C87.0716 155.44 86.9416 161.757 82.9339 163.373C79.6289 164.705 75.3834 165.153 71.1684 165.153ZM62.8306 151.882C60.4166 151.882 58.3646 153.633 58.0075 156.042C57.8126 157.354 58.1499 158.659 58.9578 159.714C59.7633 160.765 60.9325 161.431 62.2505 161.59C70.7521 162.615 77.6995 162.266 81.8109 160.608C83.0318 160.116 83.3823 158.145 83.477 157.321C83.8061 154.436 82.9249 151.771 82.3728 151.126C77.015 152.248 68.9412 152.162 63.0651 151.888C62.9861 151.883 62.9079 151.882 62.8306 151.882Z" fill="#00227B"/>
</g>
</g>
</g>
</g>
<g id="Group_67">
<g id="Group_68">
<g id="Group_69">
<g id="Group_70">
<path id="Vector_17" d="M125.476 161.99C131.111 164.263 139.832 163.787 145.777 163.07C149.343 162.641 151.847 159.363 151.321 155.824C150.842 152.594 147.987 150.245 144.714 150.398C139.153 150.658 130.811 150.779 125.528 149.612" fill="white"/>
</g>
</g>
</g>
</g>
<g id="Group_71" opacity="0.35">
<g id="Group_72" opacity="0.35">
<g id="Group_73" opacity="0.35">
<g id="Group_74" opacity="0.35">
<path id="Vector_18" opacity="0.35" d="M145.776 163.073C139.83 163.785 131.11 164.265 125.472 161.989L125.497 156.048C131.134 158.309 139.84 157.834 145.776 157.117C147.936 156.859 149.704 155.553 150.648 153.777C150.98 154.401 151.214 155.089 151.324 155.825C151.845 159.363 149.342 162.642 145.776 163.073Z" fill="#00227B"/>
</g>
</g>
</g>
</g>
<g id="Group_75">
<g id="Group_76">
<g id="Group_77">
<g id="Group_78">
<path id="Vector_19" d="M136.68 165.153C132.465 165.153 128.22 164.705 124.914 163.373C120.906 161.757 120.776 155.439 121.95 151.679C123.106 147.978 125.065 147.984 125.853 148.157C129.779 149.025 136.452 149.292 144.644 148.91C146.6 148.819 148.508 149.452 150.018 150.693C151.527 151.933 152.516 153.677 152.802 155.606C153.117 157.722 152.572 159.823 151.27 161.522C149.97 163.219 148.084 164.294 145.958 164.55C143.182 164.885 139.939 165.153 136.68 165.153ZM125.476 151.126C124.924 151.771 124.043 154.436 124.372 157.321C124.466 158.145 124.816 160.116 126.038 160.609C130.149 162.266 137.097 162.615 145.598 161.59C146.916 161.431 148.085 160.765 148.891 159.714C149.699 158.659 150.036 157.355 149.841 156.042C149.473 153.556 147.299 151.771 144.785 151.888C138.907 152.162 130.834 152.247 125.476 151.126Z" fill="#00227B"/>
</g>
</g>
</g>
</g>
<g id="Group_79">
<g id="Group_80">
<g id="Group_81">
<g id="Group_82">
<path id="Vector_20" d="M127.654 145.522V165.358C127.654 169.038 124.629 172.051 120.934 172.051H84.2564C80.5663 172.051 77.5418 169.038 77.5418 165.358V145.522C77.5418 141.842 80.5663 138.834 84.2564 138.834H120.934C123.11 138.834 125.051 139.878 126.283 141.485C127.142 142.608 127.654 144.008 127.654 145.522Z" fill="white"/>
</g>
</g>
</g>
</g>
<g id="Group_83" opacity="0.35">
<g id="Group_84" opacity="0.35">
<g id="Group_85" opacity="0.35">
<g id="Group_86" opacity="0.35">
<path id="Vector_21" opacity="0.35" d="M127.652 145.522V165.358C127.652 169.038 124.63 172.049 120.935 172.049H84.2575C80.5625 172.049 77.5397 169.038 77.5397 165.358V157.939C83.0481 163.532 93.8814 167.044 103.817 167.096C107.009 167.113 109.585 164.598 109.813 161.426C109.815 161.394 109.817 161.362 109.82 161.331C110.064 158.548 112.366 156.295 115.163 156.094C118.349 155.865 121.038 158.209 121.353 161.255C126.162 155.342 124.754 145.064 126.283 141.485C127.143 142.609 127.652 144.007 127.652 145.522Z" fill="#00227B"/>
</g>
</g>
</g>
</g>
<g id="Group_87">
<g id="Group_88">
<g id="Group_89">
<g id="Group_90">
<path id="Vector_22" d="M120.936 173.541H84.2568C79.7284 173.541 76.044 169.871 76.044 165.361V145.522C76.044 141.012 79.7284 137.342 84.2568 137.342H120.936C125.464 137.342 129.148 141.012 129.148 145.522V165.361C129.148 169.871 125.464 173.541 120.936 173.541ZM84.2568 140.323C81.3788 140.323 79.0372 142.655 79.0372 145.522V165.361C79.0372 168.227 81.3788 170.559 84.2568 170.559H120.936C123.814 170.559 126.155 168.227 126.155 165.361V145.522C126.155 142.655 123.814 140.323 120.936 140.323H84.2568Z" fill="#00227B"/>
</g>
</g>
</g>
</g>
<g id="Group_91">
<g id="Group_92">
<g id="Group_93">
<g id="Group_94">
<path id="Vector_23" d="M115.59 161.21C118.789 161.21 121.382 158.627 121.382 155.441C121.382 152.255 118.789 149.672 115.59 149.672C112.391 149.672 109.798 152.255 109.798 155.441C109.798 158.627 112.391 161.21 115.59 161.21Z" fill="#22A7F0"/>
</g>
</g>
</g>
</g>
<g id="Group_95" opacity="0.7">
<g id="Group_96" opacity="0.7">
<g id="Group_97" opacity="0.7">
<g id="Group_98" opacity="0.7">
<path id="Vector_24" opacity="0.7" d="M121.382 155.441C121.382 155.836 121.344 156.219 121.269 156.594C120.735 153.956 118.395 151.971 115.592 151.971C112.784 151.971 110.444 153.956 109.91 156.594C109.835 156.219 109.797 155.837 109.797 155.441C109.797 152.253 112.391 149.673 115.592 149.673C118.787 149.673 121.382 152.253 121.382 155.441Z" fill="white"/>
</g>
</g>
</g>
</g>
<g id="Group_99" opacity="0.35">
<g id="Group_100" opacity="0.35">
<g id="Group_101" opacity="0.35">
<g id="Group_102" opacity="0.35">
<path id="Vector_25" opacity="0.35" d="M121.381 155.44C121.381 158.625 118.788 161.208 115.59 161.208C112.392 161.208 109.799 158.625 109.799 155.44C109.799 154.703 109.939 154 110.197 153.353C111.031 155.505 113.132 157.028 115.591 157.028C118.049 157.028 120.15 155.505 120.985 153.353C121.242 154 121.381 154.703 121.381 155.44Z" fill="#00227B"/>
</g>
</g>
</g>
</g>
<g id="Group_103">
<g id="Group_104">
<g id="Group_105">
<g id="Group_106">
<path id="Vector_26" d="M115.59 162.328C111.777 162.328 108.676 159.238 108.676 155.441C108.676 151.643 111.777 148.554 115.59 148.554C119.403 148.554 122.505 151.643 122.505 155.441C122.505 159.238 119.403 162.328 115.59 162.328ZM115.59 150.79C113.016 150.79 110.921 152.877 110.921 155.441C110.921 158.005 113.016 160.091 115.59 160.091C118.165 160.091 120.259 158.005 120.259 155.441C120.259 152.877 118.165 150.79 115.59 150.79Z" fill="#00227B"/>
</g>
</g>
</g>
</g>
<g id="Group_107">
<g id="Group_108">
<g id="Group_109">
<g id="Group_110">
<path id="Vector_27" d="M99.1772 173.168C98.5568 173.168 98.055 172.667 98.055 172.05V158.463L90.72 152.963V138.833C90.72 138.215 91.2227 137.715 91.8423 137.715C92.4618 137.715 92.9645 138.215 92.9645 138.833V151.847L100.299 157.347V172.05C100.299 172.667 99.7967 173.168 99.1772 173.168Z" fill="#00227B"/>
</g>
</g>
</g>
</g>
</g>
<g id="Group_111">
<g id="Group_112">
<g id="Group_113">
<g id="Group_114">
<g id="Group_115">
<path id="Vector_28" d="M103.315 182.73C109.804 182.73 116.043 180.332 120.916 176.065C127.666 170.155 139.029 163.107 151.571 167.628C156.604 169.441 160.033 172.767 162.373 176.447C168.399 162.541 181.04 161.707 186.511 169.589C186.511 169.589 177.315 213.29 174.317 214.263C170.023 215.656 159.706 214.191 159.706 214.191C159.706 214.191 123.812 209.351 103.315 209.351C82.8188 209.351 46.9249 214.191 46.9249 214.191C46.9249 214.191 36.6075 215.655 32.3135 214.263C29.3162 213.29 20.1194 169.589 20.1194 169.589C25.5899 161.707 38.2316 162.541 44.2575 176.447C46.5967 172.766 50.0268 169.441 55.0596 167.628C67.6018 163.107 78.9649 170.155 85.7149 176.065C90.5881 180.332 96.8271 182.73 103.315 182.73Z" fill="white"/>
</g>
</g>
</g>
</g>
<g id="Group_116" opacity="0.35">
<path id="Vector_29" d="M186.513 169.587C186.513 169.587 177.315 213.29 174.318 214.263C170.025 215.657 159.705 214.192 159.705 214.192C159.705 214.192 123.813 209.351 103.315 209.351C82.8208 209.351 46.9246 214.192 46.9246 214.192C46.9246 214.192 36.608 215.657 32.3164 214.263C29.3191 213.29 20.1215 169.587 20.1215 169.587C21.0232 168.29 22.1158 167.228 23.3434 166.423C26.2922 179.237 30.4751 195.967 32.3164 196.564C36.6088 197.954 46.9246 196.489 46.9246 196.489C46.9246 196.489 82.8208 186.806 103.315 186.806C123.813 186.806 159.705 196.489 159.705 196.489C159.705 196.489 170.025 197.954 174.318 196.564C176.159 195.967 180.342 179.237 183.291 166.423C184.518 167.229 185.611 168.291 186.513 169.587Z" fill="#00227B"/>
</g>
<g id="Group_117">
<g id="Group_118">
<g id="Group_119">
<g id="Group_120">
<path id="Vector_30" d="M37.8474 216.35C35.5964 216.35 33.3971 216.182 31.8503 215.681C30.7955 215.338 29.9086 214.174 28.2442 209.009C27.27 205.986 26.1009 201.777 24.7705 196.497C22.3746 186.993 20.0396 176.333 19.1469 172.192C18.6796 170.023 19.3929 167.781 21.0096 166.34C24.1131 163.573 28.273 162.507 32.4213 163.417C35.0361 163.99 37.58 165.35 39.7784 167.349C41.5992 169.005 43.1822 171.073 44.5019 173.519C47.18 170.115 50.5517 167.667 54.552 166.226C59.0845 164.592 63.8269 164.267 68.6483 165.262C72.5408 166.065 76.4991 167.729 80.4122 170.21C81.1099 170.653 81.3147 171.574 80.8713 172.269C80.4278 172.964 79.5022 173.168 78.8045 172.726C70.7505 167.619 62.9334 166.376 55.5705 169.03C51.4181 170.527 48.0373 173.29 45.5238 177.246C45.2268 177.713 44.6936 177.977 44.1416 177.935C43.5887 177.891 43.1049 177.547 42.8844 177.039C40.3667 171.228 36.3187 167.325 31.7779 166.33C28.5807 165.629 25.3834 166.443 23.0065 168.563C22.1886 169.292 21.8316 170.443 22.0743 171.568C22.9168 175.477 25.1251 185.563 27.4255 194.778C28.6901 199.843 29.8107 203.965 30.7569 207.025C32.0815 211.312 32.7735 212.569 33.0195 212.92C36.401 213.864 44.0066 213.102 46.7152 212.717C46.7184 212.717 46.7217 212.717 46.725 212.716C47.0846 212.667 82.9545 207.862 103.316 207.862C123.679 207.862 159.548 212.667 159.907 212.716C159.911 212.717 159.915 212.717 159.918 212.717C162.627 213.102 170.232 213.864 173.614 212.92C173.856 212.576 174.529 211.355 175.809 207.243C176.733 204.278 177.826 200.283 179.06 195.367C181.261 186.603 183.369 177.067 184.431 172.163C184.779 170.556 184.174 168.909 182.89 167.967C180.441 166.168 177.405 165.631 174.344 166.455C169.957 167.636 166.194 171.395 163.749 177.04C163.529 177.547 163.045 177.892 162.492 177.936C161.938 177.979 161.406 177.713 161.109 177.246C158.596 173.292 155.216 170.527 151.064 169.031C143.636 166.354 135.752 167.64 127.629 172.855C126.934 173.301 126.008 173.101 125.56 172.409C125.112 171.717 125.312 170.795 126.007 170.348C129.944 167.821 133.928 166.119 137.848 165.291C142.717 164.262 147.506 164.577 152.082 166.227C156.082 167.668 159.454 170.117 162.133 173.521C164.944 168.316 168.938 164.821 173.563 163.577C177.467 162.525 181.514 163.251 184.668 165.566C186.897 167.204 187.953 170.039 187.358 172.791C186.234 177.986 184.006 188.052 181.714 197.088C180.415 202.213 179.273 206.295 178.321 209.222C176.697 214.215 175.825 215.345 174.782 215.682C170.231 217.159 160.023 215.744 159.503 215.67C158.94 215.595 123.418 210.844 103.317 210.844C83.2129 210.844 47.6942 215.595 47.1315 215.67C46.7859 215.717 42.2204 216.35 37.8474 216.35Z" fill="#00227B"/>
</g>
</g>
</g>
</g>
<g id="Group_121">
<g id="Group_122">
<g id="Group_123">
<g id="Group_124">
<path id="Vector_31" d="M171.652 214.263H174.318C177.448 214.263 180.285 212.435 181.56 209.588C185.55 200.688 192.826 181.131 186.011 169.197C185.813 168.848 185.6 168.513 185.376 168.192C185.376 168.192 178.833 162.265 174.133 170.65C169.742 178.483 160.527 211.976 171.652 214.263Z" fill="#AFAFB2"/>
</g>
</g>
</g>
</g>
<g id="Group_125" opacity="0.7">
<g id="Group_126" opacity="0.7">
<g id="Group_127" opacity="0.7">
<g id="Group_128" opacity="0.7">
<path id="Vector_32" opacity="0.7" d="M171.725 176.233C171.843 176.045 171.961 175.868 172.075 175.703C177.854 167.318 185.9 173.246 185.9 173.246C186.176 173.567 186.438 173.902 186.68 174.25C187.487 175.399 188.132 176.618 188.637 177.894C188.311 174.759 187.497 171.796 186.011 169.197C185.813 168.849 185.601 168.514 185.376 168.193C185.376 168.193 178.833 162.265 174.133 170.65C173.42 171.92 172.583 173.859 171.725 176.233Z" fill="white"/>
</g>
</g>
</g>
</g>
<g id="Group_129">
<g id="Group_130">
<g id="Group_131">
<g id="Group_132">
<path id="Vector_33" d="M188.601 178.788C188.534 178.788 188.465 178.782 188.396 178.771L172.043 176.052C171.371 175.94 170.917 175.307 171.029 174.636C171.14 173.967 171.777 173.514 172.449 173.626L188.802 176.345C189.474 176.456 189.928 177.09 189.816 177.76C189.716 178.363 189.193 178.788 188.601 178.788Z" fill="#00227B"/>
</g>
</g>
</g>
</g>
<g id="Group_133">
<g id="Group_134">
<g id="Group_135">
<g id="Group_136">
<path id="Vector_34" d="M188.497 187.588C188.442 187.588 188.387 187.585 188.331 187.576L169.201 185.015C168.525 184.925 168.051 184.306 168.142 183.633C168.232 182.96 168.853 182.488 169.53 182.579L188.66 185.14C189.335 185.23 189.809 185.849 189.719 186.522C189.636 187.14 189.106 187.588 188.497 187.588Z" fill="#00227B"/>
</g>
</g>
</g>
</g>
<g id="Group_137">
<g id="Group_138">
<g id="Group_139">
<g id="Group_140">
<path id="Vector_35" d="M186.81 196.207C186.76 196.207 186.709 196.204 186.658 196.198L167.239 193.831C166.562 193.748 166.081 193.135 166.163 192.462C166.246 191.788 166.861 191.308 167.538 191.391L186.958 193.758C187.634 193.841 188.116 194.454 188.033 195.127C187.957 195.751 187.424 196.207 186.81 196.207Z" fill="#00227B"/>
</g>
</g>
</g>
</g>
<g id="Group_141">
<g id="Group_142">
<g id="Group_143">
<g id="Group_144">
<path id="Vector_36" d="M183.73 205.607C183.693 205.607 183.655 205.606 183.617 205.603L166.255 204.042C165.577 203.982 165.076 203.383 165.137 202.707C165.198 202.031 165.799 201.532 166.478 201.594L183.839 203.154C184.518 203.215 185.019 203.813 184.958 204.489C184.9 205.127 184.361 205.607 183.73 205.607Z" fill="#00227B"/>
</g>
</g>
</g>
</g>
<g id="Group_145" opacity="0.35">
<g id="Group_146" opacity="0.35">
<g id="Group_147" opacity="0.35">
<g id="Group_148" opacity="0.35">
<path id="Vector_37" opacity="0.35" d="M171.651 214.263H174.317C177.447 214.263 180.284 212.435 181.559 209.588C182.59 207.281 183.845 204.264 185.018 200.845C183.418 203.49 180.167 205.167 176.597 205.167H173.419C168.897 204.387 167.196 199.97 167.128 194.181C165.6 203.953 166.019 213.105 171.651 214.263Z" fill="#00227B"/>
</g>
</g>
</g>
</g>
<g id="Group_149">
<g id="Group_150">
<g id="Group_151">
<g id="Group_152">
<path id="Vector_38" d="M174.318 215.492H171.652C171.568 215.492 171.485 215.484 171.403 215.467C169.248 215.023 167.62 213.632 166.563 211.33C164.07 205.903 165.282 196.449 166.737 189.474C168.516 180.95 171.262 173.25 173.056 170.051C174.705 167.109 176.782 165.415 179.229 165.017C182.982 164.408 186.077 167.165 186.207 167.282C186.275 167.344 186.336 167.413 186.389 167.488C186.635 167.839 186.869 168.21 187.085 168.589C190.2 174.044 190.861 181.505 189.05 190.764C187.577 198.292 184.778 205.428 182.688 210.089C181.218 213.371 177.933 215.492 174.318 215.492ZM171.786 213.034H174.318C176.959 213.034 179.36 211.485 180.433 209.088C182.47 204.544 185.198 197.595 186.626 190.296C188.322 181.63 187.754 174.735 184.939 169.805C184.786 169.536 184.622 169.274 184.452 169.023C183.989 168.647 181.889 167.068 179.612 167.446C177.952 167.722 176.471 169.002 175.211 171.249C173.551 174.211 170.864 181.781 169.154 189.974C167.204 199.326 167.08 206.547 168.808 210.308C169.509 211.835 170.484 212.728 171.786 213.034Z" fill="#00227B"/>
</g>
</g>
</g>
</g>
<g id="Group_153">
<g id="Group_154">
<g id="Group_155">
<g id="Group_156">
<path id="Vector_39" d="M34.9809 214.263H32.3152C29.1854 214.263 26.3477 212.435 25.0732 209.588C21.0828 200.688 13.8071 181.131 20.6221 169.197C20.8203 168.848 21.0326 168.513 21.2572 168.192C21.2572 168.192 27.7998 162.265 32.5003 170.65C36.8905 178.483 46.1055 211.976 34.9809 214.263Z" fill="#AFAFB2"/>
</g>
</g>
</g>
</g>
<g id="Group_157" opacity="0.7">
<g id="Group_158" opacity="0.7">
<g id="Group_159" opacity="0.7">
<g id="Group_160" opacity="0.7">
<path id="Vector_40" opacity="0.7" d="M34.9062 176.233C34.7885 176.045 34.6709 175.868 34.5565 175.703C28.7774 167.318 20.7317 173.246 20.7317 173.246C20.456 173.567 20.1936 173.902 19.9517 174.25C19.1445 175.399 18.4995 176.618 17.9951 177.894C18.321 174.759 19.1347 171.796 20.6206 169.197C20.8189 168.849 21.0311 168.514 21.2558 168.193C21.2558 168.193 27.7984 162.265 32.4988 170.65C33.2113 171.92 34.0489 173.859 34.9062 176.233Z" fill="white"/>
</g>
</g>
</g>
</g>
<g id="Group_161">
<g id="Group_162">
<g id="Group_163">
<g id="Group_164">
<path id="Vector_41" d="M18.0309 178.788C17.4385 178.788 16.916 178.362 16.8148 177.761C16.7029 177.091 17.1563 176.458 17.8293 176.346L34.1825 173.627C34.8547 173.515 35.4907 173.967 35.6026 174.637C35.7145 175.307 35.2611 175.94 34.5881 176.052L18.2349 178.771C18.1666 178.783 18.0983 178.788 18.0309 178.788Z" fill="#00227B"/>
</g>
</g>
</g>
</g>
<g id="Group_165">
<g id="Group_166">
<g id="Group_167">
<g id="Group_168">
<path id="Vector_42" d="M18.1343 187.588C17.5254 187.588 16.9956 187.14 16.9125 186.523C16.822 185.85 17.2959 185.231 17.9714 185.141L37.1022 182.579C37.7785 182.488 38.3989 182.96 38.4902 183.633C38.5807 184.306 38.1068 184.925 37.4313 185.015L18.3005 187.577C18.2445 187.585 18.1894 187.588 18.1343 187.588Z" fill="#00227B"/>
</g>
</g>
</g>
</g>
<g id="Group_169">
<g id="Group_170">
<g id="Group_171">
<g id="Group_172">
<path id="Vector_43" d="M19.8224 196.207C19.2078 196.207 18.6755 195.751 18.599 195.127C18.5159 194.454 18.9972 193.841 19.6743 193.758L39.094 191.39C39.7703 191.308 40.3857 191.787 40.4688 192.462C40.5519 193.135 40.0706 193.748 39.3935 193.831L19.9738 196.198C19.9228 196.205 19.8718 196.207 19.8224 196.207Z" fill="#00227B"/>
</g>
</g>
</g>
</g>
<g id="Group_173">
<g id="Group_174">
<g id="Group_175">
<g id="Group_176">
<path id="Vector_44" d="M22.9025 205.607C22.2706 205.607 21.7325 205.127 21.6749 204.489C21.614 203.813 22.1143 203.215 22.793 203.154L40.155 201.594C40.8346 201.533 41.4335 202.031 41.4952 202.707C41.5561 203.383 41.0559 203.981 40.3771 204.042L23.0152 205.603C22.9773 205.606 22.9395 205.607 22.9025 205.607Z" fill="#00227B"/>
</g>
</g>
</g>
</g>
<g id="Group_177" opacity="0.35">
<g id="Group_178" opacity="0.35">
<g id="Group_179" opacity="0.35">
<g id="Group_180" opacity="0.35">
<path id="Vector_45" opacity="0.35" d="M34.9801 214.263H32.3144C29.1846 214.263 26.3469 212.435 25.0724 209.588C24.0407 207.281 22.786 204.264 21.6127 200.845C23.213 203.49 26.4645 205.167 30.0345 205.167H33.212C37.7339 204.387 39.4354 199.97 39.5028 194.181C41.0315 203.953 40.6111 213.105 34.9801 214.263Z" fill="#00227B"/>
</g>
</g>
</g>
</g>
<g id="Group_181">
<g id="Group_182">
<g id="Group_183">
<g id="Group_184">
<path id="Vector_46" d="M34.9803 215.492H32.3145C28.7002 215.492 25.4149 213.371 23.9454 210.088C21.8564 205.429 19.0557 198.293 17.583 190.765C15.7721 181.506 16.4328 174.045 19.5478 168.589C19.7641 168.21 19.9986 167.84 20.2438 167.489C20.2965 167.413 20.3574 167.345 20.4256 167.283C20.5556 167.165 23.65 164.408 27.4035 165.018C29.8504 165.416 31.9278 167.109 33.5767 170.051C35.3703 173.251 38.1167 180.95 39.8955 189.475C41.3509 196.45 42.562 205.904 40.0699 211.331C39.0126 213.633 37.3844 215.024 35.2296 215.467C35.1473 215.484 35.0634 215.492 34.9803 215.492ZM22.1798 169.024C22.0095 169.274 21.8466 169.536 21.6935 169.804C18.878 174.735 18.3095 181.629 20.0052 190.296C21.4335 197.596 24.161 204.544 26.199 209.088C27.2727 211.486 29.6727 213.034 32.3137 213.034H34.8454C36.1478 212.729 37.1236 211.836 37.8246 210.308C39.5516 206.547 39.429 199.325 37.4782 189.974C35.7685 181.78 33.0814 174.211 31.421 171.249C30.1614 169.002 28.6804 167.722 27.0201 167.446C24.7476 167.069 22.6479 168.643 22.1798 169.024Z" fill="#00227B"/>
</g>
</g>
</g>
</g>
<g id="Group_185">
<g id="Group_186">
<g id="Group_187">
<g id="Group_188">
<path id="Vector_47" d="M65.0715 213.141C64.8962 213.141 64.7185 213.1 64.5523 213.013C64.0027 212.727 63.7904 212.051 64.0784 211.504C68.7657 202.584 68.8348 192.552 64.2841 181.688C60.8515 173.494 55.9363 167.887 55.887 167.831C55.4772 167.368 55.5217 166.662 55.9865 166.253C56.4514 165.845 57.1606 165.888 57.5704 166.351C57.7802 166.588 62.7488 172.246 66.3295 180.764C68.4423 185.789 69.6205 190.763 69.8328 195.546C70.0994 201.56 68.8323 207.278 66.067 212.54C65.8663 212.923 65.4755 213.141 65.0715 213.141Z" fill="#00227B"/>
</g>
</g>
</g>
</g>
<g id="Group_189">
<g id="Group_190">
<g id="Group_191">
<g id="Group_192">
<path id="Vector_48" d="M142.016 213.141C141.611 213.141 141.221 212.923 141.02 212.541C138.255 207.278 136.988 201.561 137.254 195.547C137.467 190.764 138.645 185.79 140.758 180.764C144.338 172.247 149.307 166.588 149.517 166.352C149.927 165.889 150.636 165.845 151.101 166.254C151.566 166.662 151.611 167.368 151.2 167.831C151.151 167.887 146.235 173.494 142.803 181.688C138.252 192.552 138.321 202.584 143.009 211.504C143.296 212.051 143.084 212.726 142.535 213.013C142.369 213.1 142.191 213.141 142.016 213.141Z" fill="#00227B"/>
</g>
</g>
</g>
</g>
</g>
<g id="Group_193" opacity="0.35">
<path id="Vector_49" d="M140.513 105.726C139.218 107.202 137.857 108.603 136.438 109.919C133.071 113.042 129.38 115.7 125.433 117.806C118.764 121.369 111.367 123.367 103.576 123.403C95.9648 123.437 88.7204 121.596 82.1539 118.249C77.8542 116.054 73.8465 113.217 70.2206 109.837C68.4171 108.152 66.7066 106.337 65.1013 104.403C68.009 103.509 70.8977 102.472 73.5429 101.447C76.8282 93.5647 80.6598 85.492 85.1282 77.4194H121.503C125.197 84.094 128.456 90.7654 131.33 97.3359C134.069 98.9273 137.224 101.924 140.513 105.726Z" fill="#00227B"/>
</g>
<g id="Group_194">
<g id="Group_195">
<g id="Group_196">
<g id="Group_197">
<g id="Group_198">
<path id="Vector_50" d="M158.863 69.7335C158.23 69.8015 157.661 69.3451 157.593 68.7141L154.043 35.8088C153.974 35.1778 154.433 34.6116 155.066 34.5436C161.712 33.8323 167.677 38.6213 168.392 45.2402L169.603 56.4613C170.318 63.0802 165.509 69.0222 158.863 69.7335Z" fill="white"/>
</g>
</g>
</g>
<g id="Group_199">
<g id="Group_200">
<g id="Group_201">
<path id="Vector_51" d="M158.737 70.0236C158.411 70.0236 158.096 69.9138 157.838 69.7065C157.539 69.4664 157.352 69.1247 157.311 68.7444L153.76 35.8392C153.719 35.4589 153.83 35.0853 154.071 34.7878C154.312 34.4903 154.655 34.3035 155.037 34.2625C161.829 33.5356 167.946 38.4467 168.676 45.2107L169.886 56.4318C170.24 59.7081 169.291 62.9253 167.214 65.4911C165.138 68.0569 162.183 69.6639 158.894 70.0162L158.863 69.7344L158.894 70.0162C158.842 70.0212 158.789 70.0236 158.737 70.0236ZM156.369 34.7566C155.948 34.7566 155.524 34.7788 155.097 34.8247C154.866 34.8492 154.659 34.9623 154.513 35.1418C154.368 35.3221 154.301 35.5474 154.326 35.7777L157.876 68.683C157.901 68.9132 158.014 69.1197 158.195 69.2648C158.376 69.4098 158.602 69.4762 158.834 69.4516C161.972 69.1156 164.791 67.5824 166.772 65.1346C168.754 62.6869 169.659 59.6171 169.321 56.4908L168.111 45.2697C167.459 39.2425 162.324 34.7566 156.369 34.7566Z" fill="#00227B"/>
</g>
</g>
</g>
</g>
<g id="Group_202" opacity="0.35">
<g id="Group_203" opacity="0.35">
<g id="Group_204" opacity="0.35">
<g id="Group_205" opacity="0.35">
<path id="Vector_52" opacity="0.35" d="M169.035 51.1994L169.605 56.462C170.318 63.0785 165.51 69.0221 158.864 69.7359C158.23 69.8047 157.662 69.3442 157.593 68.714L156.646 59.9669C156.867 60.3464 157.298 60.5791 157.763 60.5332L158.546 60.4472C163.797 59.8858 167.904 56.0548 169.035 51.1994Z" fill="#00227B"/>
</g>
</g>
</g>
</g>
<g id="Group_206">
<g id="Group_207">
<g id="Group_208">
<g id="Group_209">
<path id="Vector_53" d="M158.736 71.3176C158.114 71.3176 157.515 71.1078 157.023 70.7136C156.454 70.2572 156.098 69.6065 156.02 68.8829L152.469 35.9777C152.391 35.2541 152.601 34.5428 153.059 33.9757C153.518 33.4086 154.171 33.0538 154.897 32.976C162.399 32.1729 169.16 37.5994 169.966 45.0722L171.177 56.2933C171.568 59.9129 170.519 63.4678 168.225 66.3032C165.932 69.1378 162.667 70.9136 159.032 71.302C158.934 71.3118 158.834 71.3176 158.736 71.3176ZM158.696 68.1659H158.695C158.695 68.1659 158.695 68.1659 158.696 68.1659ZM155.665 36.0744L159.122 68.1126C161.744 67.7258 164.089 66.3917 165.762 64.3242C167.525 62.1452 168.331 59.4131 168.03 56.6301L166.82 45.409C166.215 39.8071 161.259 35.7007 155.665 36.0744Z" fill="#00227B"/>
</g>
</g>
</g>
</g>
<g id="Group_210">
<g id="Group_211">
<g id="Group_212">
<g id="Group_213">
<path id="Vector_54" d="M46.0181 46.2153C46.6516 46.1473 47.2201 46.6037 47.2884 47.2347L50.8386 80.14C50.9069 80.771 50.4486 81.3373 49.8151 81.4053C43.1697 82.1166 37.2038 77.3276 36.4896 70.7087L35.2794 59.4876C34.5636 52.8686 39.3726 46.9266 46.0181 46.2153Z" fill="white"/>
</g>
</g>
</g>
<g id="Group_214">
<g id="Group_215">
<g id="Group_216">
<path id="Vector_55" d="M48.512 81.7585C42.2706 81.7593 36.8872 77.0572 36.206 70.739L34.9957 59.5179C34.2659 52.754 39.1967 46.6603 45.9878 45.9335L46.0182 46.2153L45.9878 45.9335C46.7752 45.849 47.4861 46.4194 47.5708 47.2045L51.121 80.1097C51.2058 80.8948 50.6331 81.602 49.8449 81.6864C49.3982 81.7347 48.9522 81.7585 48.512 81.7585ZM46.1417 46.4915C46.1104 46.4915 46.08 46.4932 46.0479 46.4964C39.5686 47.1897 34.864 53.0039 35.5609 59.4573L36.7712 70.6784C37.4673 77.1317 43.304 81.8175 49.784 81.1242C50.2604 81.0734 50.6068 80.6457 50.5558 80.1712L47.0056 47.2659C46.9578 46.8218 46.5794 46.4915 46.1417 46.4915Z" fill="#00227B"/>
</g>
</g>
</g>
</g>
<g id="Group_217" opacity="0.35">
<g id="Group_218" opacity="0.35">
<g id="Group_219" opacity="0.35">
<g id="Group_220" opacity="0.35">
<path id="Vector_56" opacity="0.35" d="M49.8568 71.0111L50.8408 80.1401C50.9099 80.7711 50.4475 81.3373 49.8148 81.4054C46.3263 81.7774 43.0221 80.6359 40.5686 78.5069C38.3529 76.5844 36.8308 73.8522 36.491 70.7104L35.9809 65.982C38.3151 69.9286 42.8296 72.3682 47.702 71.8478L48.9073 71.7183C49.3467 71.6708 49.6947 71.3881 49.8568 71.0111Z" fill="#00227B"/>
</g>
</g>
</g>
</g>
<g id="Group_221">
<g id="Group_222">
<g id="Group_223">
<g id="Group_224">
<path id="Vector_57" d="M48.5113 83.0516C41.6149 83.0524 35.668 77.8578 34.9152 70.8766L33.7049 59.6556C32.8986 52.1828 38.3469 45.4499 45.8497 44.6469C47.3488 44.4862 48.7014 45.5712 48.8626 47.0651L52.4129 79.9712C52.5741 81.4659 51.4848 82.8115 49.9841 82.9721C49.4896 83.0262 48.9976 83.0516 48.5113 83.0516ZM45.7608 47.8371C40.2154 48.6566 36.248 53.7176 36.852 59.3196L38.0622 70.5407C38.667 76.1426 43.6233 80.2482 49.2172 79.8753L45.7608 47.8371Z" fill="#00227B"/>
</g>
</g>
</g>
</g>
<g id="Group_225">
<g id="Group_226">
<g id="Group_227">
<g id="Group_228">
<path id="Vector_58" d="M102.446 114.37C133.718 114.37 159.069 89.1208 159.069 57.974C159.069 26.8271 133.718 1.57765 102.446 1.57765C71.1747 1.57765 45.8239 26.8271 45.8239 57.974C45.8239 89.1208 71.1747 114.37 102.446 114.37Z" fill="white"/>
</g>
</g>
</g>
<g id="Group_229">
<g id="Group_230">
<g id="Group_231">
<path id="Vector_59" d="M102.392 114.655C95.4493 114.655 88.6673 113.415 82.2012 110.96C75.3254 108.351 69.0963 104.485 63.685 99.4714C58.2737 94.4571 53.9542 88.547 50.8449 81.9051C47.6263 75.0281 45.8541 67.6643 45.5768 60.0178C45.2995 52.3712 46.5345 44.8993 49.2471 37.8091C51.8668 30.9608 55.7486 24.7565 60.7822 19.3668C65.8159 13.9771 71.7513 9.67408 78.4206 6.57728C85.3252 3.37149 92.7186 1.60634 100.396 1.33018C108.073 1.05401 115.575 2.28405 122.693 4.98586C129.569 7.59507 135.798 11.4614 141.21 16.4749C146.621 21.4893 150.94 27.3993 154.05 34.0412C157.268 40.9182 159.041 48.2821 159.318 55.9286C159.595 63.5751 158.36 71.0471 155.647 78.1372C153.028 84.9856 149.146 91.1898 144.112 96.5795C139.077 101.969 133.143 106.271 126.475 109.368C119.57 112.574 112.177 114.339 104.5 114.615C103.795 114.642 103.092 114.655 102.392 114.655ZM102.473 1.85956C101.789 1.85956 101.106 1.87185 100.415 1.89644C69.3711 3.01256 45.0255 29.076 46.1453 59.9965C46.6875 74.9748 53.054 88.8469 64.0716 99.056C74.5791 108.793 88.1193 114.087 102.396 114.088C103.089 114.088 103.781 114.075 104.477 114.05C119.516 113.51 133.444 107.169 143.694 96.1952C153.944 85.2216 159.29 70.9291 158.748 55.9507C157.653 25.717 132.607 1.85956 102.473 1.85956Z" fill="#00227B"/>
</g>
</g>
</g>
</g>
<g id="Group_232" opacity="0.35">
<g id="Group_233" opacity="0.35">
<g id="Group_234" opacity="0.35">
<g id="Group_235" opacity="0.35">
<path id="Vector_60" opacity="0.35" d="M158.208 48.1584C158.661 50.6938 158.938 53.2916 159.034 55.9409C160.157 87.0671 135.739 113.21 104.488 114.335C73.2369 115.454 46.9891 91.1325 45.8595 60.0072C45.8266 59.1123 45.815 58.2158 45.8257 57.3316C50.634 84.63 75.0346 104.904 103.628 103.877C133.981 102.785 157.884 78.0947 158.208 48.1584Z" fill="#00227B"/>
</g>
</g>
</g>
</g>
<g id="Group_236">
<g id="Group_237">
<g id="Group_238">
<g id="Group_239">
<path id="Vector_61" d="M102.391 115.948C95.2901 115.948 88.3534 114.679 81.7392 112.169C74.7071 109.5 68.3348 105.546 62.8009 100.418C57.267 95.2896 52.8488 89.2444 49.6688 82.4509C46.3761 75.4165 44.5636 67.8839 44.2805 60.0637C43.9975 52.2434 45.2604 44.6002 48.0356 37.3478C50.7153 30.3437 54.6852 23.9969 59.834 18.4851C64.9829 12.9733 71.0507 8.57191 77.8722 5.40546C84.9348 2.12592 92.4976 0.320611 100.349 0.0387112C108.202 -0.243188 115.875 1.01471 123.156 3.7788C130.188 6.44783 136.561 10.4018 142.095 15.5301C147.628 20.6584 152.047 26.7036 155.227 33.4971C158.519 40.5315 160.332 48.0641 160.615 55.8843C160.898 63.7046 159.635 71.3478 156.86 78.6002C154.18 85.6043 150.21 91.9511 145.061 97.4629C139.913 102.975 133.843 107.375 127.022 110.543C119.96 113.822 112.397 115.627 104.545 115.909C103.826 115.935 103.107 115.948 102.391 115.948ZM102.474 3.15354C101.805 3.15354 101.137 3.16583 100.464 3.18959C70.1342 4.2795 46.3498 29.7422 47.444 59.9506C47.9739 74.5839 54.194 88.1356 64.9573 98.1103C75.2229 107.623 88.4505 112.795 102.399 112.795C103.075 112.795 103.753 112.783 104.433 112.758C119.125 112.231 132.731 106.035 142.745 95.315C152.76 84.5947 157.983 70.6316 157.452 55.9982C156.382 26.4602 131.912 3.15354 102.474 3.15354Z" fill="#00227B"/>
</g>
</g>
</g>
</g>
<g id="Group_240">
<g id="Group_241">
<g id="Group_242">
<g id="Group_243">
<path id="Vector_62" d="M158.905 57.3946C159.472 68.4158 156.406 78.8321 150.698 87.6112C146.419 94.1932 128.058 106.267 104.69 107.669C83.0222 108.968 62.7074 98.4627 57.7757 92.351C51.1969 84.198 47.079 74.1488 46.5121 63.1277C45.0122 33.9617 69.5494 20.5871 100.588 19.0038C131.625 17.4206 157.406 28.2287 158.905 57.3946Z" fill="#3949AB"/>
</g>
</g>
</g>
</g>
<g id="Group_244">
<g id="Group_245">
<g id="Group_246">
<g id="Group_247">
<path id="Vector_63" d="M100.928 108.864C90.1543 108.864 80.7839 106.19 74.5638 103.8C66.6875 100.774 59.764 96.5467 56.9263 93.0296C49.9616 84.3988 45.9843 74.0775 45.424 63.1826C45.0522 55.9532 46.2493 49.3933 48.98 43.6848C51.5512 38.3123 55.4947 33.6577 60.7027 29.8488C70.2172 22.8898 83.9894 18.7654 100.53 17.9221C117.072 17.0789 131.195 19.7799 141.373 25.7342C146.944 28.9933 151.345 33.2226 154.453 38.3058C157.756 43.7061 159.619 50.1103 159.99 57.3397C160.551 68.2347 157.652 78.9059 151.61 88.2004C149.099 92.0618 142.864 96.795 135.338 100.552C128.727 103.852 118.054 107.953 104.753 108.75C103.462 108.827 102.185 108.864 100.928 108.864ZM106.371 19.9372C104.498 19.9372 102.589 19.9864 100.642 20.0856C84.5266 20.9075 71.1617 24.8877 61.9904 31.5951C51.7511 39.0843 46.9083 49.6752 47.597 63.072C48.1334 73.5088 51.9461 83.3991 58.622 91.6725C60.6081 94.1342 66.1799 98.2578 75.3471 101.779C82.0913 104.369 92.644 107.306 104.623 106.588C117.556 105.812 127.936 101.823 134.365 98.6143C142.98 94.3137 148.056 89.682 149.786 87.0228C155.578 78.1134 158.356 67.8872 157.82 57.4504C157.131 44.0536 151.227 34.0109 140.273 27.6026C131.646 22.5563 120.008 19.9372 106.371 19.9372Z" fill="#00227B"/>
</g>
</g>
</g>
</g>
<g id="Group_248" opacity="0.5">
<g id="Group_249" opacity="0.5">
<g id="Group_250" opacity="0.5">
<g id="Group_251" opacity="0.5">
<path id="Vector_64" d="M147.632 55.2866C148.339 49.8197 145.688 44.9745 141.711 44.4645C137.734 43.9545 133.936 47.9727 133.23 53.4395C132.523 58.9064 135.174 63.7516 139.151 64.2616C143.129 64.7717 146.926 60.7534 147.632 55.2866Z" fill="white"/>
</g>
</g>
</g>
</g>
<g id="Group_252" opacity="0.5">
<g id="Group_253" opacity="0.5">
<g id="Group_254" opacity="0.5">
<g id="Group_255" opacity="0.5">
<path id="Vector_65" d="M136.378 75.6067C137.047 73.1663 135.886 70.724 133.783 70.1517C131.681 69.5794 129.433 71.0938 128.764 73.5342C128.094 75.9746 129.256 78.4168 131.358 78.9891C133.461 79.5614 135.708 78.047 136.378 75.6067Z" fill="white"/>
</g>
</g>
</g>
</g>
<g id="Group_256" opacity="0.35">
<path id="Vector_66" d="M146.576 30.7429C153.782 36.9217 158.301 45.6795 158.905 57.3931C159.472 68.4167 156.403 78.8322 150.7 87.6113C146.419 94.1933 128.056 106.267 104.688 107.671C96.4373 108.169 88.3849 106.951 81.2993 104.913C109.987 102.577 132.348 87.767 137.655 79.6033C144.9 68.4609 148.791 55.2395 148.07 41.2543C147.88 37.5159 147.368 34.0159 146.576 30.7429Z" fill="#00227B"/>
</g>
<g id="Group_257">
<g id="Group_258">
<g id="Group_259">
<g id="Group_260">
<path id="Vector_67" d="M49.4646 39.5579C49.1454 39.5579 48.8245 39.4588 48.5497 39.2531C47.903 38.7679 47.7541 37.869 48.1943 37.206C50.5441 33.361 53.5447 29.8471 57.1122 26.7626C60.5859 23.7601 64.6256 21.1386 69.1187 18.971C73.518 16.8494 78.3806 15.1498 83.5705 13.919C88.7136 12.6996 94.2039 11.9342 99.8908 11.6441C105.484 11.3589 110.964 11.5515 116.18 12.2153C121.443 12.8856 126.447 14.0386 131.052 15.6407C135.764 17.2805 140.075 19.398 143.867 21.9343C147.764 24.5418 151.135 27.6083 153.888 31.0493C154.368 31.5795 154.418 32.3916 153.968 32.9816C153.459 33.6487 152.504 33.7782 151.834 33.2717L151.675 33.1537L151.555 33.0013C141.361 20.2044 122.587 13.524 100.046 14.6737C77.3809 15.83 59.4217 24.6312 50.7728 38.8204L50.7333 38.8851L50.6815 38.9531C50.3836 39.3489 49.927 39.5579 49.4646 39.5579Z" fill="#00227B"/>
</g>
</g>
</g>
</g>
<g id="Group_261" opacity="0.5">
<g id="Group_262" opacity="0.5">
<g id="Group_263" opacity="0.5">
<g id="Group_264" opacity="0.5">
<path id="Vector_68" d="M60.0243 79.8344C60.0243 79.8344 49.4756 51.5248 64.4548 39.2646C79.434 27.0045 101.835 25.9088 101.385 27.3659C101.385 27.3659 76.8958 34.61 68.1967 54.6298C61.4888 70.0679 60.0243 79.8344 60.0243 79.8344Z" fill="white"/>
</g>
</g>
</g>
</g>
</g>
<g id="Group_265">
<g id="Group_266">
<g id="Group_267">
<g id="Group_268">
<g id="Group_269">
<path id="Vector_69" d="M153.763 217.508H53.3396C50.0881 217.508 47.452 214.882 47.452 211.644C47.452 209.778 48.9708 208.265 50.8442 208.265H156.258C158.131 208.265 159.65 209.778 159.65 211.644C159.65 214.883 157.014 217.508 153.763 217.508Z" fill="#E6E9FA"/>
</g>
</g>
</g>
</g>
<g id="Group_270" opacity="0.3">
<g id="Group_271" opacity="0.3">
<g id="Group_272" opacity="0.3">
<g id="Group_273" opacity="0.3">
<path id="Vector_70" opacity="0.3" d="M159.649 211.644C159.649 212.285 159.544 212.901 159.353 213.478C158.826 212.297 157.64 211.477 156.259 211.477H50.845C49.9096 211.477 49.0605 211.853 48.4467 212.469C48.1546 212.76 47.9152 213.099 47.7473 213.479C47.5565 212.902 47.452 212.287 47.452 211.645C47.452 210.714 47.8296 209.868 48.4475 209.257C49.0613 208.642 49.9104 208.265 50.8459 208.265H156.259C158.133 208.264 159.649 209.777 159.649 211.644Z" fill="white"/>
</g>
</g>
</g>
</g>
<g id="Group_274" opacity="0.35">
<g id="Group_275" opacity="0.35">
<g id="Group_276" opacity="0.35">
<g id="Group_277" opacity="0.35">
<path id="Vector_71" opacity="0.35" d="M159.649 211.645C159.649 213.262 158.99 214.731 157.923 215.789C156.86 216.851 155.386 217.507 153.763 217.507H53.3413C50.0897 217.507 47.4511 214.883 47.4511 211.645C47.4511 211.022 47.6198 210.437 47.9185 209.934C48.8087 212.032 50.9043 213.508 53.3405 213.508H153.762C155.386 213.508 156.86 212.852 157.923 211.79C158.454 211.26 158.884 210.631 159.18 209.934C159.481 210.437 159.649 211.022 159.649 211.645Z" fill="#00227B"/>
</g>
</g>
</g>
</g>
<g id="Group_278">
<g id="Group_279">
<g id="Group_280">
<g id="Group_281">
<path id="Vector_72" d="M153.763 218.999H53.3403C49.2684 218.999 45.956 215.7 45.956 211.645C45.956 208.96 48.1495 206.775 50.8448 206.775H156.259C158.954 206.775 161.148 208.96 161.148 211.645C161.148 215.699 157.835 218.999 153.763 218.999ZM50.844 209.757C49.7991 209.757 48.9484 210.603 48.9484 211.645C48.9484 214.056 50.9181 216.018 53.3395 216.018H153.763C156.185 216.018 158.154 214.056 158.154 211.645C158.154 210.604 157.304 209.757 156.259 209.757H50.844Z" fill="#00227B"/>
</g>
</g>
</g>
</g>
<g id="Group_282">
<g id="Group_283">
<g id="Group_284">
<g id="Group_285">
<path id="Vector_73" d="M165.512 142.244L155.69 208.263H51.4143L51.0589 205.875L41.5873 142.244C41.2771 140.154 42.9045 138.279 45.0223 138.279H162.076C164.199 138.279 165.823 140.154 165.512 142.244Z" fill="#FF66AC"/>
</g>
</g>
</g>
</g>
<g id="Group_286">
<g id="Group_287">
<g id="Group_288">
<g id="Group_289">
<path id="Vector_74" d="M165.512 142.244L155.69 208.263H51.4143L51.0589 205.875L41.5873 142.244C41.2771 140.154 42.9045 138.279 45.0223 138.279H162.076C164.199 138.279 165.823 140.154 165.512 142.244Z" fill="#E6E9FA"/>
</g>
</g>
</g>
</g>
<g id="Group_290" opacity="0.5">
<g id="Group_291" opacity="0.5">
<g id="Group_292" opacity="0.5">
<g id="Group_293" opacity="0.5">
<path id="Vector_75" opacity="0.5" d="M45.2901 146.342C44.9799 144.252 46.6073 142.377 48.7251 142.377H165.493L165.513 142.245C165.823 140.154 164.2 138.279 162.078 138.279H45.0235C42.9057 138.279 41.2783 140.154 41.5885 142.245L51.0593 205.876L51.4147 208.264H54.5075L45.2901 146.342Z" fill="white"/>
</g>
</g>
</g>
</g>
<g id="Group_294">
<g id="Group_295" opacity="0.35">
<g id="Group_296" opacity="0.35">
<g id="Group_297" opacity="0.35">
<g id="Group_298" opacity="0.35">
<path id="Vector_76" opacity="0.35" d="M158.786 138.279H150.567C153.684 149.651 151.964 175.332 131.857 188.753C106.617 205.602 61.1279 205.494 51.4703 205.875L51.8257 208.263H152.399L162.221 142.244C162.532 140.154 160.908 138.279 158.786 138.279Z" fill="#00227B"/>
</g>
</g>
</g>
</g>
</g>
<g id="Group_299">
<g id="Group_300">
<g id="Group_301">
<g id="Group_302">
<path id="Vector_77" d="M156.98 209.757H50.123L40.1092 142.462C39.8969 141.037 40.3174 139.595 41.2619 138.504C42.2064 137.413 43.578 136.788 45.0236 136.788H162.079C163.526 136.788 164.897 137.413 165.841 138.504C166.786 139.595 167.206 141.037 166.994 142.462L156.98 209.757ZM52.7057 206.774H154.397L164.033 142.024C164.118 141.45 163.955 140.891 163.574 140.451C163.193 140.011 162.663 139.769 162.079 139.769H45.0236C44.4402 139.769 43.9095 140.012 43.5286 140.451C43.1477 140.891 42.9848 141.45 43.0703 142.024L52.7057 206.774Z" fill="#00227B"/>
</g>
</g>
</g>
</g>
<g id="Group_303" opacity="0.3">
<g id="Group_304" opacity="0.3">
<g id="Group_305" opacity="0.3">
<g id="Group_306" opacity="0.3">
<path id="Vector_78" opacity="0.3" d="M59.7148 192.839C55.7589 184.155 52.8785 169.329 53.5276 160.604C54.1768 151.88 59.2573 154.549 60.8321 165.725C65.0224 195.469 61.4804 196.717 59.7148 192.839Z" fill="white"/>
</g>
</g>
</g>
</g>
<g id="Group_307">
<g id="Group_308">
<g id="Group_309">
<g id="Group_310">
<g id="Group_311">
<path id="Vector_79" d="M117.175 165.781C117.302 164.666 117.451 163.54 117.231 162.406C117.133 162.283 117.043 162.157 116.945 162.034C116.621 161.918 116.306 161.766 115.969 161.682C113.596 161.071 111.19 160.83 108.747 161.039C105.56 161.313 102.635 162.292 100.12 164.31C99.2091 165.038 98.3789 165.86 97.529 166.657C97.3011 166.873 97.1258 166.963 96.8058 166.818C96.0529 166.477 95.2417 166.324 94.4181 166.283C92.209 166.183 90.2377 166.895 88.3988 168.044C86.4061 169.295 84.8 170.966 83.3042 172.755C82.6674 173.513 82.9151 174.358 83.8629 174.676C84.461 174.871 85.0592 175.062 85.6573 175.257C87.0906 175.719 88.5206 176.177 89.9497 176.638C89.9464 176.683 89.9505 176.705 89.9439 176.728C89.9324 176.755 89.9201 176.787 89.9003 176.814C89.3038 177.578 89.4486 178.285 90.0772 178.948C90.1447 179.022 90.2031 179.11 90.2623 179.189C90.5915 179.62 90.928 180.056 91.2768 180.505C90.8004 180.872 90.3323 181.183 89.9184 181.559C89.7094 181.749 89.5251 182.024 89.4462 182.297C89.3121 182.737 89.5408 183.187 89.9341 183.418C90.3512 183.668 90.7807 183.657 91.169 183.378C91.6619 183.029 92.1325 182.651 92.6335 182.27C93.1066 182.891 93.555 183.478 94.0051 184.059C94.521 184.72 94.8764 184.833 95.6761 184.613C95.8217 184.568 95.9657 184.536 96.1377 184.495C96.1492 184.665 96.1624 184.802 96.1698 184.93C96.2718 186.988 96.3656 189.05 96.4791 191.103C96.531 192.076 97.3027 192.536 98.1855 192.119C98.9828 191.744 99.7792 191.348 100.561 190.926C102.362 189.95 104.001 188.755 105.308 187.166C106.945 185.167 107.851 182.933 107.427 180.295C107.409 180.191 107.496 180.013 107.586 179.96C108.389 179.444 109.214 178.961 110.018 178.442C111.834 177.263 113.295 175.73 114.437 173.9C115.988 171.411 116.845 168.68 117.175 165.781ZM91.132 174.689C89.4774 174.152 87.762 173.595 85.9996 173.024C87.8204 171.096 89.7473 169.413 92.3423 168.702C93.4637 168.395 94.7596 168.421 95.5247 168.731C94.0717 170.706 92.6154 172.681 91.132 174.689ZM105.049 183.16C104.629 184.496 103.826 185.584 102.837 186.555C101.607 187.747 100.177 188.637 98.6298 189.448C98.5369 187.555 98.4414 185.703 98.3476 183.89C100.687 182.983 102.974 182.099 105.273 181.209C105.362 181.84 105.253 182.509 105.049 183.16ZM113.686 170.486C112.934 172.255 111.946 173.866 110.538 175.2C109.451 176.224 108.218 177.045 106.92 177.775C103.4 179.754 99.6278 181.118 95.7707 182.272C95.5823 182.326 95.4671 182.316 95.3429 182.144C95.0739 181.763 94.7719 181.396 94.4872 181.02C94.4683 180.999 94.4617 180.963 94.4346 180.896C94.5333 180.818 94.6386 180.74 94.7448 180.659C96.9456 178.975 99.1572 177.298 101.359 175.611C101.995 175.13 102.023 174.304 101.434 173.827C101.022 173.491 100.48 173.496 100.005 173.852C98.6808 174.858 97.3595 175.865 96.0381 176.875C95.0525 177.626 94.075 178.373 93.0515 179.155C92.7002 178.698 92.3612 178.28 92.0551 177.841C92.0033 177.763 92.056 177.564 92.1267 177.467C93.3 175.723 94.4634 173.97 95.6843 172.257C96.8922 170.555 98.2654 168.984 99.776 167.541C101.192 166.178 102.727 164.975 104.583 164.258C105.772 163.797 107 163.483 108.268 163.348C108.383 163.332 108.55 163.446 108.631 163.552C109.921 165.212 111.194 166.875 112.472 168.541C112.855 169.037 113.234 169.542 113.629 170.032C113.747 170.18 113.762 170.306 113.686 170.486ZM114.451 168.163C113.177 166.501 111.933 164.884 110.687 163.26C110.689 163.223 110.7 163.18 110.706 163.14C112.156 163.313 113.61 163.49 115.079 163.665C115.051 165.241 114.818 166.684 114.451 168.163Z" fill="#00227B"/>
</g>
</g>
</g>
</g>
<g id="Group_312">
<g id="Group_313">
<g id="Group_314">
<g id="Group_315">
<path id="Vector_80" d="M113.631 170.032C113.235 169.542 112.857 169.036 112.474 168.54C111.197 166.874 109.923 165.211 108.633 163.551C108.552 163.445 108.385 163.331 108.27 163.347C107.002 163.482 105.774 163.796 104.585 164.258C102.728 164.975 101.194 166.178 99.778 167.54C98.2674 168.983 96.8942 170.554 95.6864 172.256C94.4654 173.97 93.302 175.723 92.1287 177.466C92.058 177.563 92.0053 177.762 92.0572 177.84C92.3624 178.28 92.7014 178.697 93.0535 179.154C94.077 178.372 95.0545 177.624 96.0402 176.874C97.3615 175.864 98.6829 174.857 100.008 173.851C100.482 173.496 101.024 173.491 101.436 173.826C102.025 174.304 101.998 175.13 101.361 175.611C99.1593 177.297 96.9477 178.975 94.7468 180.658C94.6406 180.739 94.5345 180.817 94.4366 180.895C94.4637 180.963 94.4703 180.998 94.4893 181.019C94.7739 181.395 95.0759 181.762 95.3449 182.143C95.4692 182.316 95.5843 182.325 95.7728 182.271C99.6299 181.117 103.402 179.753 106.922 177.774C108.22 177.045 109.453 176.223 110.54 175.199C111.947 173.865 112.936 172.254 113.688 170.485C113.762 170.306 113.748 170.18 113.631 170.032ZM109.768 172.569C108.085 173.832 105.704 173.523 104.441 171.87C103.169 170.219 103.489 167.849 105.156 166.569C106.793 165.314 109.175 165.638 110.451 167.29C111.712 168.931 111.404 171.336 109.768 172.569Z" fill="white"/>
</g>
</g>
</g>
</g>
<g id="Group_316">
<g id="Group_317">
<g id="Group_318">
<g id="Group_319">
<path id="Vector_81" d="M114.45 168.162C113.176 166.503 111.932 164.884 110.687 163.26C110.691 163.222 110.699 163.182 110.705 163.14C112.156 163.314 113.61 163.491 115.081 163.666C115.053 165.239 114.817 166.684 114.45 168.162Z" fill="#DB2C2C"/>
</g>
</g>
</g>
</g>
<g id="Group_320">
<g id="Group_321">
<g id="Group_322">
<g id="Group_323">
<path id="Vector_82" d="M95.5252 168.732C94.0706 170.704 92.6143 172.681 91.1325 174.69C89.4754 174.15 87.76 173.595 85.9984 173.024C87.8209 171.094 89.7469 169.411 92.3419 168.702C93.4634 168.394 94.7576 168.421 95.5252 168.732Z" fill="#DB2C2C"/>
</g>
</g>
</g>
</g>
<g id="Group_324">
<g id="Group_325">
<g id="Group_326">
<g id="Group_327">
<path id="Vector_83" d="M102.835 186.555C101.606 187.748 100.177 188.639 98.6287 189.448C98.5349 187.557 98.4402 185.705 98.3473 183.89C100.686 182.984 102.973 182.101 105.275 181.208C105.363 181.841 105.252 182.508 105.05 183.161C104.63 184.498 103.827 185.585 102.835 186.555Z" fill="#DB2C2C"/>
</g>
</g>
</g>
</g>
<g id="Group_328">
<g id="Group_329">
<g id="Group_330">
<g id="Group_331">
<path id="Vector_84" d="M110.45 167.29C109.174 165.638 106.792 165.315 105.155 166.569C103.488 167.85 103.167 170.219 104.439 171.87C105.703 173.523 108.084 173.832 109.767 172.569C111.404 171.336 111.712 168.931 110.45 167.29ZM108.633 171.175C107.781 171.818 106.528 171.648 105.864 170.8C105.177 169.926 105.365 168.641 106.274 167.969C107.126 167.333 108.402 167.517 109.043 168.37C109.712 169.256 109.528 170.501 108.633 171.175Z" fill="#00227B"/>
</g>
</g>
</g>
</g>
<g id="Group_332">
<g id="Group_333">
<g id="Group_334">
<g id="Group_335">
<path id="Vector_85" d="M108.632 171.175C107.78 171.818 106.527 171.648 105.862 170.799C105.178 169.926 105.363 168.641 106.272 167.969C107.126 167.335 108.4 167.517 109.041 168.368C109.711 169.256 109.529 170.502 108.632 171.175Z" fill="#22A7F0"/>
</g>
</g>
</g>
</g>
</g>
</g>
<g id="Group_336">
<g id="Group_337">
<g id="Group_338">
<g id="Group_339">
<path id="Vector_86" d="M164.995 145.728C164.995 145.728 156.914 141.908 149.325 145.334C142.057 148.615 136.916 171.975 146.332 177.893C152.143 181.545 156.099 178.319 159.386 179.266C164.263 180.671 174.268 156.618 164.995 145.728Z" fill="white"/>
</g>
</g>
</g>
</g>
<g id="Group_340" opacity="0.35">
<path id="Vector_87" d="M168.641 160.93C167.684 170.721 162.494 180.161 159.388 179.266C156.098 178.32 152.143 181.547 146.332 177.895C141.834 175.066 140.659 168.261 141.452 161.559C141.987 165.469 143.503 168.819 146.332 170.597C152.143 174.245 156.013 172.55 159.388 171.969C163.56 171.249 166.961 166.71 168.641 160.93Z" fill="#00227B"/>
</g>
<g id="Group_341">
<g id="Group_342">
<g id="Group_343">
<g id="Group_344">
<path id="Vector_88" d="M152.29 181.17C150.33 181.17 148.061 180.743 145.532 179.154C143.269 177.731 141.634 175.429 140.674 172.312C139.867 169.696 139.566 166.509 139.802 163.094C140.081 159.05 141.079 154.901 142.612 151.411C143.784 148.746 145.792 145.292 148.706 143.976C156.834 140.307 165.28 144.212 165.636 144.38L165.927 144.518L166.135 144.763C170.379 149.747 170.624 156.633 170.082 161.531C169.471 167.05 167.516 172.905 164.977 176.81C162.435 180.722 160.307 181.084 158.969 180.699C158.101 180.449 157.004 180.623 155.734 180.826C154.73 180.986 153.576 181.17 152.29 181.17ZM156.242 145.394C153.967 145.394 151.858 145.828 149.943 146.693C148.367 147.404 146.695 149.56 145.356 152.608C143.977 155.745 143.042 159.641 142.789 163.3C142.343 169.759 143.925 174.619 147.13 176.633C150.361 178.664 152.853 178.266 155.262 177.882C156.82 177.634 158.291 177.399 159.802 177.835C159.976 177.865 161.221 177.386 162.978 174.355C167.075 167.287 169.673 153.939 164.068 146.951C163.433 146.688 161.798 146.069 159.659 145.699C158.483 145.496 157.343 145.394 156.242 145.394Z" fill="#00227B"/>
</g>
</g>
</g>
</g>
</g>
<g id="Group_345">
<g id="Group_346">
<g id="Group_347">
<g id="Group_348">
<g id="Group_349">
<path id="Vector_89" d="M187.594 60.6947C184.712 57.7274 182.745 53.8324 182.22 49.4162C180.946 38.6967 188.637 28.9777 199.399 27.7083C210.162 26.439 219.92 34.0994 221.194 44.819C222.469 55.5385 214.778 65.2575 204.015 66.5269C201.022 66.8801 198.107 66.54 195.43 65.6378L187.013 69.5926L187.594 60.6947Z" fill="#FF0068"/>
</g>
</g>
</g>
</g>
<g id="Group_350" opacity="0.5">
<path id="Vector_90" opacity="0.5" d="M199.843 31.4411C189.79 32.6269 182.418 41.1863 182.529 51.0463C182.375 50.3743 182.253 49.6892 182.169 48.9902C180.894 38.2706 188.585 28.5517 199.348 27.2823C210.111 26.0129 219.869 33.6734 221.143 44.3929C221.227 45.0961 221.27 45.7934 221.278 46.4859C219.078 36.8677 209.9 30.2553 199.843 31.4411Z" fill="white"/>
</g>
<g id="Group_351">
<g id="Group_352">
<g id="Group_353">
<g id="Group_354">
<path id="Vector_91" d="M187.012 71.0267C186.728 71.0267 186.445 70.9431 186.202 70.7784C185.781 70.4924 185.542 70.0064 185.575 69.4992L186.117 61.2217C183.149 57.9773 181.311 53.9677 180.79 49.5843C180.128 44.0192 181.682 38.5312 185.164 34.1298C188.647 29.7292 193.642 26.9422 199.23 26.2833C204.817 25.6244 210.327 27.1716 214.745 30.6405C219.163 34.1093 221.962 39.0843 222.623 44.6494C223.285 50.2145 221.731 55.7025 218.248 60.1031C214.766 64.5037 209.771 67.2907 204.183 67.9495C201.242 68.2962 198.333 68.0356 195.528 67.1751L187.626 70.8882C187.431 70.9816 187.221 71.0267 187.012 71.0267ZM201.72 29.0056C201.009 29.0056 200.292 29.0474 199.568 29.1326C194.745 29.7013 190.433 32.1073 187.426 35.9064C184.42 39.7055 183.078 44.4437 183.65 49.2475C184.121 53.2154 185.843 56.8293 188.629 59.6974C188.911 59.9883 189.058 60.3841 189.031 60.7881L188.607 67.2579L194.814 64.3414C195.151 64.1832 195.537 64.1611 195.89 64.2799C198.459 65.1461 201.135 65.4231 203.845 65.1035C213.802 63.9292 220.943 54.9051 219.764 44.9887C218.671 35.7909 210.799 29.0056 201.72 29.0056Z" fill="#00227B"/>
</g>
</g>
</g>
</g>
<g id="Group_355" opacity="0.3">
<path id="Vector_92" opacity="0.3" d="M187.446 60.5358C193.684 63.785 201.345 64.1095 208.12 60.7308C215.634 56.9842 220.141 49.6417 220.605 41.846C220.874 42.8064 221.073 43.798 221.194 44.819C222.468 55.5386 214.777 65.2576 204.014 66.527C201.021 66.8802 198.106 66.5401 195.429 65.6378L187.012 69.5926L187.595 60.6948C187.544 60.6423 187.496 60.5882 187.446 60.5358Z" fill="#00227B"/>
</g>
<g id="Group_356">
<g id="Group_357">
<g id="Group_358">
<g id="Group_359">
<path id="Vector_93" d="M195.5 41.6288C197.199 39.9375 199.952 40.2407 201.651 41.9321L201.915 42.1951L202.179 41.9321C203.877 40.2407 206.631 39.9375 208.329 41.6288C210.027 43.3202 210.027 46.063 208.329 47.7544L208.065 48.0175L202.726 53.3351C202.278 53.7809 201.553 53.7809 201.104 53.3351L195.765 48.0175L195.501 47.7544C193.802 46.0622 193.802 43.3202 195.5 41.6288Z" fill="white"/>
</g>
</g>
</g>
</g>
</g>
</g>
</svg>
